<svg width="151" height="146" viewBox="0 0 151 146" fill="none" xmlns="http://www.w3.org/2000/svg">
<path d="M75.7982 20.2023C81.3631 20.2023 85.8743 15.6908 85.8743 10.1256C85.8743 4.56035 81.3631 0.0488281 75.7982 0.0488281C70.2333 0.0488281 65.7221 4.56035 65.7221 10.1256C65.7221 15.6908 70.2333 20.2023 75.7982 20.2023Z" fill="#FC5532"/>
<path d="M45.2385 8.5942C45.316 8.52909 48.8643 5.57736 53.7008 9.72744C56.4461 12.1614 60.9601 20.2894 66.0027 24.131C68.2877 25.4766 77.8229 31.7521 87.0619 24.131C91.1798 19.473 94.9613 14.5281 98.3779 9.33367C99.3871 7.7431 102.63 5.36963 106.699 8.64845C110.768 11.9273 108.104 16.9765 108.104 16.9765C108.104 16.9765 89.2227 45.0876 86.7347 46.8471C85.4501 48.2014 83.9008 49.2768 82.1828 50.0065C80.4648 50.7362 78.6149 51.1046 76.7485 51.0887C72.7512 51.1344 68.8952 49.6117 66.0075 46.8471C63.9923 44.4458 64.1581 46.0503 43.4665 16.8757C42.7045 15.5159 42.4641 13.925 42.7902 12.4007C43.1163 10.8764 43.9868 9.52315 45.2385 8.5942Z" fill="#FC5532"/>
<path d="M122.863 53.8571C124.304 59.2331 129.83 62.4228 135.206 60.9814C140.581 59.54 143.771 54.0134 142.33 48.6373C140.888 43.2613 135.362 40.0717 129.986 41.5131C124.611 42.9545 121.421 48.4811 122.863 53.8571Z" fill="#8099FC"/>
<path d="M126.16 21.328C126.243 21.386 130.014 24.0494 127.258 29.7966C125.618 33.0792 118.936 39.5451 116.531 45.4117C115.823 47.9676 112.231 58.8046 121.985 65.7562C127.551 68.528 133.307 70.9004 139.209 72.8558C141.007 73.4187 144.14 75.9369 142.026 80.7172C139.913 85.4976 134.346 84.231 134.346 84.231C134.346 84.231 102.302 73.2714 99.9582 71.3236C98.3174 70.4334 96.8773 69.2151 95.7275 67.7444C94.5777 66.2737 93.7428 64.582 93.2747 62.7748C92.1952 58.925 92.6674 54.8055 94.5899 51.2997C96.3875 48.7309 94.8806 49.3067 117.702 21.7611C118.818 20.6727 120.293 20.0284 121.85 19.9487C123.406 19.8689 124.939 20.3594 126.16 21.328Z" fill="#8099FC"/>
<path d="M105.093 108.641C100.535 111.835 99.4301 118.12 102.624 122.677C105.819 127.235 112.103 128.341 116.66 125.146C121.218 121.952 122.323 115.667 119.129 111.109C115.935 106.551 109.651 105.446 105.093 108.641Z" fill="#51C6FC"/>
<path d="M136.784 100.605C136.758 100.703 135.546 105.157 129.203 104.535C125.558 104.117 117.196 100.052 110.861 99.8002C108.217 100.01 96.8061 100.344 93.6136 111.889C92.9145 118.068 92.6556 124.288 92.8388 130.504C92.9252 132.386 91.6315 136.191 86.4169 135.842C81.2023 135.492 80.4867 129.827 80.4867 129.827C80.4867 129.827 79.8156 95.966 80.8434 93.0967C81.1181 91.2501 81.7698 89.4799 82.758 87.8961C83.7462 86.3123 85.0498 84.9487 86.5876 83.8904C89.8352 81.5583 93.8672 80.5919 97.819 81.1984C100.848 82.0083 99.791 80.7894 133.482 92.8056C134.887 93.4819 135.997 94.6468 136.605 96.0824C137.213 97.5181 137.276 99.126 136.784 100.605Z" fill="#51C6FC"/>
<path d="M47.729 109.316C43.2827 105.966 36.9625 106.854 33.6124 111.301C30.2624 115.748 31.1511 122.068 35.5974 125.419C40.0437 128.769 46.3639 127.88 49.714 123.434C53.064 118.987 52.1753 112.666 47.729 109.316Z" fill="#A5CF29"/>
<path d="M65.1588 136.99C65.0577 136.995 60.4458 137.217 59.0796 130.99C58.3512 127.392 59.6373 118.18 57.9206 112.075C56.905 109.624 53.064 98.8694 41.0944 99.3964C35.0002 100.639 29.0022 102.313 23.1455 104.407C21.3817 105.07 17.3618 105.014 16.0842 99.9444C14.8067 94.8748 19.9752 92.4448 19.9752 92.4448C19.9752 92.4448 51.9829 81.3512 55.03 81.4432C56.8716 81.1345 58.7569 81.208 60.5688 81.6593C62.3807 82.1105 64.0805 82.9299 65.5622 84.0663C68.7836 86.4363 70.9479 89.9744 71.591 93.9218C71.7557 97.0538 72.589 95.6719 71.5597 131.44C71.35 132.985 70.5844 134.401 69.4063 135.422C68.2281 136.444 66.7181 137.001 65.1588 136.99Z" fill="#A5CF29"/>
<path d="M30.7892 54.4558C32.6034 49.1911 29.8064 43.4524 24.5421 41.6381C19.2777 39.8239 13.5395 42.621 11.7253 47.8857C9.91117 53.1504 12.7081 58.8891 17.9725 60.7034C23.2368 62.5176 28.9751 59.7205 30.7892 54.4558Z" fill="#FDA629"/>
<path d="M9.84557 79.5829C9.80925 79.4883 8.17386 75.1692 13.6763 71.9464C16.8736 70.1426 26.0337 68.5219 31.3115 65.0035C33.3293 63.2805 42.374 56.3054 38.1768 45.0802C35.1131 39.6659 31.6683 34.4763 27.8685 29.5506C26.6929 28.0773 25.505 24.2355 29.9331 21.4547C34.3612 18.6738 38.2688 22.8409 38.2688 22.8409C38.2688 22.8409 58.7048 49.8678 59.5581 52.7952C60.4204 54.452 60.9326 56.2684 61.0628 58.1316C61.193 59.9948 60.9384 61.865 60.3149 63.6256C59.055 67.4222 56.3575 70.5738 52.8011 72.4045C49.8726 73.5282 51.4444 73.8944 17.1017 83.9591C15.567 84.2366 13.9837 83.9455 12.6481 83.14C11.3126 82.3346 10.3163 81.0699 9.84557 79.5829Z" fill="#FDA629"/>
</svg>
